<?xml version="1.0" standalone="no"?>
<!DOCTYPE svg PUBLIC "-//W3C//DTD SVG 20010904//EN"
 "http://www.w3.org/TR/2001/REC-SVG-20010904/DTD/svg10.dtd">
<svg version="1.0" xmlns="http://www.w3.org/2000/svg"
 width="171.000000pt" height="112.000000pt" viewBox="0 0 171.000000 112.000000"
 preserveAspectRatio="xMidYMid meet">

<g transform="translate(0.000000,112.000000) scale(0.100000,-0.100000)"
fill="#000000" stroke="none">
<path d="M727 1074 c-99 -24 -158 -60 -308 -185 -79 -66 -199 -166 -266 -222
-67 -56 -119 -105 -117 -109 13 -20 513 -434 549 -455 157 -87 351 -92 510
-13 38 18 154 109 315 244 140 118 256 219 258 224 5 16 -508 441 -572 474
-108 55 -250 71 -369 42z m304 -131 c44 -21 129 -86 272 -206 l207 -176 -202
-171 c-112 -94 -221 -182 -243 -195 -114 -68 -285 -72 -409 -8 -43 22 -456
364 -453 375 2 9 393 337 429 360 63 41 139 59 239 55 82 -3 106 -8 160 -34z"/>
<path d="M754 869 c-18 -5 -53 -24 -80 -41 -172 -116 -192 -353 -42 -500 157
-153 428 -98 519 107 33 74 31 181 -3 257 -35 75 -103 141 -174 167 -58 22
-162 27 -220 10z"/>
</g>
</svg>
